<svg viewBox="0 0 130 119" xmlns="http://www.w3.org/2000/svg" role="img" aria-hidden="true">
  <path fill="currentColor" d="M122.481 51.6032C118.731 79.3314 91.4941 101.092 57.8441 102.578C65.133 106.598 73.9019 108.944 83.3367 108.944C92.4986 108.944 101.033 106.732 108.193 102.922L127.088 114.181L119.772 94.1158C125.669 87.7697 129.172 79.8376 129.172 71.2324C129.172 64.0418 126.726 57.3212 122.481 51.6032Z"/>
  <path fill="currentColor" d="M18.7508 116.276L32.4423 68.0898C38.2422 71.2927 45.5407 73.3275 54.1688 73.3275C77.9846 73.3275 91.6704 57.8247 91.6704 45.044C91.6704 32.2633 77.9846 16.7606 54.1688 16.7606C30.3531 16.7606 16.6673 32.2633 16.6673 45.044C16.6673 47.6531 17.2377 50.3756 18.3481 53.0565C18.8145 54.1826 18.3547 55.5146 17.2411 55.9983L7.53497 60.2144C5.48763 61.1037 3.08258 60.221 2.31586 58.115C0.809756 53.9782 0 49.5897 0 45.044C0 20.1669 24.2522 0 54.1688 0C84.0855 0 108.338 20.1669 108.338 45.044C108.338 69.9211 84.0855 90.088 54.1688 90.088C49.9988 90.088 45.9389 89.6962 42.0393 88.9544L18.7508 116.276Z"/>
</svg>
